<?xml version="1.0" standalone="no"?>
<!DOCTYPE svg PUBLIC "-//W3C//DTD SVG 20010904//EN"
 "http://www.w3.org/TR/2001/REC-SVG-20010904/DTD/svg10.dtd">
<svg version="1.0" xmlns="http://www.w3.org/2000/svg"
 width="219.000000pt" height="92.000000pt" viewBox="0 0 219.000000 92.000000"
 preserveAspectRatio="xMidYMid meet">
<metadata>
Created by potrace 1.10, written by Peter Selinger 2001-2011
</metadata>
<g transform="translate(0.000000,92.000000) scale(0.100000,-0.100000)"
fill="#000000" stroke="none">
<path d="M260 864 c0 -27 4 -43 10 -39 6 3 10 24 10 46 0 21 -4 39 -10 39 -5
0 -10 -21 -10 -46z"/>
<path d="M371 871 c-1 -34 2 -42 11 -33 8 8 8 20 1 44 l-11 33 -1 -44z"/>
<path d="M139 873 c20 -33 38 -53 50 -53 7 0 -1 16 -16 35 -29 36 -51 48 -34
18z"/>
<path d="M328 800 c-9 -6 -26 -31 -39 -57 -22 -45 -23 -46 -32 -22 -30 79 -60
97 -96 58 -24 -26 -28 -76 -10 -130 7 -19 36 -58 66 -88 51 -51 55 -53 73 -36
10 9 31 35 46 58 15 23 35 54 45 68 9 14 20 47 24 73 6 38 4 51 -10 66 -20 22
-41 25 -67 10z m19 -27 c-4 -3 -10 -3 -14 0 -3 4 0 7 7 7 7 0 10 -3 7 -7z"/>
<path d="M45 770 c-15 -6 -8 -9 28 -9 30 -1 46 3 42 9 -7 12 -42 12 -70 0z"/>
<path d="M434 736 c-31 -23 -11 -27 31 -6 35 18 36 20 14 20 -14 0 -34 -6 -45
-14z"/>
<path d="M545 530 l0 -130 33 0 c78 0 124 113 76 188 -8 12 -12 27 -9 33 13
19 -17 39 -59 39 l-41 0 0 -130z m68 93 c-7 -2 -19 -2 -25 0 -7 3 -2 5 12 5
14 0 19 -2 13 -5z m15 -45 c20 -20 15 -105 -8 -128 -34 -34 -40 -24 -40 60 0
70 2 80 18 80 10 0 23 -5 30 -12z"/>
<path d="M765 530 l0 -130 28 0 c15 0 27 5 27 10 0 6 -4 10 -10 10 -6 0 -10
35 -10 85 0 47 4 85 9 85 11 0 21 -36 21 -80 0 -60 19 -110 40 -110 22 0 26
10 9 27 -16 16 -31 153 -18 169 6 7 9 23 7 36 -3 20 -9 23 -53 26 l-50 3 0
-131z m68 93 c-7 -2 -19 -2 -25 0 -7 3 -2 5 12 5 14 0 19 -2 13 -5z"/>
<path d="M994 634 c-25 -37 -25 -170 -1 -207 22 -35 69 -37 91 -5 21 29 21
156 2 203 -13 29 -20 35 -45 35 -22 0 -35 -7 -47 -26z m70 -27 c12 -44 6 -153
-8 -173 -14 -18 -16 -18 -33 -1 -14 13 -17 33 -17 90 1 77 15 120 38 111 8 -3
17 -15 20 -27z"/>
<path d="M1204 625 c-17 -42 -18 -161 -1 -195 9 -19 22 -26 50 -28 35 -3 39
-1 53 35 12 27 15 57 12 105 -6 83 -27 118 -69 118 -25 0 -32 -6 -45 -35z m81
-95 c0 -60 -4 -83 -17 -96 -15 -15 -17 -14 -33 10 -21 31 -18 154 4 180 13 16
16 16 30 1 12 -12 16 -36 16 -95z"/>
<path d="M1405 530 l0 -130 28 0 c27 0 36 13 17 25 -12 8 -13 152 -1 159 4 3
11 -23 14 -57 8 -84 24 -127 48 -127 23 0 23 4 5 33 -8 12 -19 56 -26 97 -10
71 -10 76 10 92 27 22 25 38 -4 38 -15 0 -26 -7 -29 -20 -3 -11 -11 -20 -18
-20 -10 0 -10 3 -1 12 19 19 14 28 -15 28 l-28 0 0 -130z"/>
<path d="M1610 651 c0 -6 5 -13 10 -16 6 -3 10 -50 10 -105 0 -55 -4 -102 -10
-105 -24 -15 -6 -25 44 -25 37 0 56 4 59 14 8 21 -2 26 -35 19 l-30 -6 3 117
4 116 -27 0 c-16 0 -28 -4 -28 -9z"/>
<path d="M1800 652 c0 -4 11 -19 25 -32 23 -21 25 -31 25 -106 0 -46 -4 -86
-10 -89 -19 -12 -10 -25 18 -25 l27 0 -3 103 c-3 93 -2 104 17 121 28 25 26
36 -4 36 -16 0 -25 -6 -25 -15 0 -8 -4 -15 -10 -15 -5 0 -9 6 -7 13 1 7 -10
13 -25 15 -16 2 -28 -1 -28 -6z"/>
<path d="M2000 651 c0 -6 5 -13 10 -16 6 -3 10 -50 10 -105 0 -55 -4 -102 -10
-105 -19 -12 -10 -25 18 -25 l27 0 -3 105 c-2 58 0 105 5 105 4 0 16 -7 26
-14 13 -11 17 -29 17 -89 0 -42 -4 -79 -10 -82 -19 -12 -10 -25 18 -25 l27 0
0 130 0 130 -27 0 c-30 0 -35 -9 -15 -29 10 -10 7 -10 -15 0 -16 7 -28 16 -28
21 0 4 -11 8 -25 8 -14 0 -25 -4 -25 -9z"/>
<path d="M94 635 c-18 -15 -18 -15 5 -13 14 2 26 9 29 16 5 17 -10 15 -34 -3z"/>
<path d="M390 611 c0 -5 8 -11 18 -14 9 -2 25 -8 35 -12 27 -11 20 11 -8 23
-31 14 -45 15 -45 3z"/>
<path d="M175 520 c-9 -10 -15 -23 -14 -29 2 -5 14 1 26 14 12 14 18 27 14 30
-5 2 -16 -4 -26 -15z"/>
<path d="M330 535 c0 -13 30 -62 44 -74 24 -20 19 0 -9 42 -24 35 -35 45 -35
32z"/>
<path d="M266 464 c-4 -9 -4 -32 0 -50 l6 -33 -50 21 c-57 24 -86 20 -126 -17
-49 -46 -16 -69 118 -81 62 -6 63 -6 69 -51 3 -21 8 -50 12 -64 7 -26 7 -26
-70 -32 -43 -4 -109 -4 -149 -1 -56 5 -69 4 -60 -6 9 -9 111 -12 425 -12 1391
1 1715 3 1729 12 10 7 -310 10 -915 9 l-930 0 -11 44 -11 45 52 7 c90 11 143
83 101 140 -12 17 -18 18 -54 7 -22 -7 -55 -26 -72 -42 -18 -17 -34 -30 -36
-30 -2 0 -4 31 -4 69 0 68 -11 98 -24 65z m143 -125 c-25 -16 -33 -9 -13 10
10 10 21 14 23 8 2 -5 -3 -13 -10 -18z"/>
<path d="M940 354 c-12 -4 -15 -21 -15 -74 l0 -70 33 0 c21 0 32 5 32 14 0 9
-7 12 -20 9 -18 -5 -20 0 -20 35 0 32 4 41 21 45 17 5 19 9 9 26 -11 21 -13
22 -40 15z"/>
<path d="M1104 347 c-3 -9 7 -33 21 -56 30 -45 26 -64 -11 -55 -20 5 -23 3
-18 -10 8 -21 53 -18 66 4 10 16 0 49 -28 88 -16 21 -16 22 1 16 13 -5 16 -3
13 7 -7 20 -37 24 -44 6z"/>
<path d="M1303 352 c-6 -4 -17 -20 -23 -36 -23 -61 29 -131 69 -91 15 15 14
16 -14 13 -26 -3 -30 0 -33 26 -6 49 6 78 28 71 14 -5 20 -2 20 9 0 17 -26 21
-47 8z"/>
<path d="M1677 342 c-22 -24 -22 -95 -1 -116 22 -23 41 -20 60 9 20 31 13 94
-13 112 -22 17 -27 16 -46 -5z m44 -29 c14 -36 2 -85 -19 -81 -19 3 -27 46
-18 84 8 32 24 30 37 -3z"/>
<path d="M1877 345 c-22 -21 -30 -67 -18 -99 13 -32 33 -41 60 -26 39 20 23
140 -19 140 -5 0 -15 -7 -23 -15z m38 -61 c0 -37 -4 -49 -15 -49 -16 0 -27 63
-16 92 12 31 31 6 31 -43z"/>
<path d="M540 280 c0 -56 3 -70 15 -70 11 0 15 12 15 51 0 42 3 52 20 56 35 9
24 33 -15 33 l-35 0 0 -70z"/>
<path d="M725 280 c0 -57 3 -70 15 -68 10 2 14 16 13 53 l-2 50 12 -40 c15
-50 26 -67 38 -59 6 3 5 11 -2 21 -7 8 -13 37 -13 64 0 48 0 49 -30 49 l-31 0
0 -70z m42 53 c-4 -3 -10 -3 -14 0 -3 4 0 7 7 7 7 0 10 -3 7 -7z"/>
<path d="M1466 283 c2 -49 6 -68 15 -68 9 0 12 15 10 53 -2 43 0 52 14 52 14
0 16 -9 14 -52 -2 -40 0 -54 11 -56 12 -2 15 12 15 68 0 61 -2 70 -18 70 -10
0 -15 -4 -12 -10 3 -5 -1 -10 -10 -10 -9 0 -13 5 -10 10 3 6 -2 10 -12 10 -16
0 -18 -8 -17 -67z"/>
<path d="M2056 283 l2 -68 31 0 c17 0 31 5 31 10 -1 6 -10 9 -21 7 -19 -3 -21
1 -17 57 2 49 0 61 -12 61 -12 0 -15 -14 -14 -67z"/>
<path d="M1590 65 c0 -27 3 -35 9 -26 5 7 14 10 21 6 9 -6 9 -3 1 11 -27 49
-31 50 -31 9z"/>
<path d="M1760 79 c0 -13 5 -31 10 -39 7 -11 8 -5 4 20 -8 43 -14 51 -14 19z"/>
<path d="M986 83 c-8 -9 13 -43 27 -43 8 0 6 4 -3 10 -12 8 -13 12 -2 19 11 7
11 9 -1 14 -8 3 -18 3 -21 0z"/>
<path d="M1350 77 c0 -7 4 -18 9 -25 6 -11 9 -9 14 7 3 12 -1 22 -9 25 -8 3
-14 0 -14 -7z"/>
<path d="M420 60 c0 -22 1 -23 24 -14 13 5 14 9 5 20 -16 20 -29 17 -29 -6z"/>
<path d="M565 70 c-8 -13 3 -30 18 -29 9 0 9 2 0 5 -7 3 -9 12 -6 20 6 16 -3
19 -12 4z"/>
<path d="M617 65 c-8 -18 11 -31 25 -17 11 11 3 32 -12 32 -4 0 -10 -7 -13
-15z"/>
<path d="M676 73 c-12 -12 -6 -33 9 -33 8 0 15 6 15 14 0 17 -14 28 -24 19z"/>
<path d="M730 43 c0 -37 0 -37 16 -15 16 23 13 52 -6 52 -5 0 -10 -17 -10 -37z
m17 10 c-4 -3 -7 0 -7 7 0 7 3 10 7 7 3 -4 3 -10 0 -14z"/>
<path d="M795 70 c-7 -12 2 -30 16 -30 5 0 9 9 9 20 0 21 -15 27 -25 10z"/>
<path d="M850 66 c0 -24 17 -28 23 -6 3 13 0 20 -9 20 -8 0 -14 -6 -14 -14z"/>
<path d="M914 66 c-8 -22 1 -30 21 -19 15 9 15 11 1 22 -13 11 -17 10 -22 -3z"/>
<path d="M1100 60 c0 -26 16 -26 23 0 3 13 0 20 -9 20 -8 0 -14 -9 -14 -20z"/>
<path d="M1154 69 c-3 -6 0 -15 7 -20 14 -8 32 9 23 23 -7 11 -22 10 -30 -3z"/>
<path d="M1294 64 c3 -9 7 -28 7 -42 1 -21 2 -23 6 -7 3 11 10 25 15 32 12 15
2 33 -19 33 -10 0 -13 -6 -9 -16z"/>
<path d="M1415 70 c-7 -12 2 -30 16 -30 5 0 9 9 9 20 0 21 -15 27 -25 10z"/>
<path d="M1477 74 c-10 -10 4 -34 20 -34 12 0 13 3 4 13 -6 8 -8 17 -4 20 3 4
2 7 -4 7 -5 0 -12 -3 -16 -6z"/>
<path d="M1657 65 c-7 -16 8 -29 23 -20 10 6 2 35 -10 35 -4 0 -10 -7 -13 -15z"/>
<path d="M1716 73 c-12 -12 -6 -33 9 -33 8 0 15 6 15 14 0 17 -14 28 -24 19z
m11 -20 c-4 -3 -7 0 -7 7 0 7 3 10 7 7 3 -4 3 -10 0 -14z"/>
<path d="M1051 54 c0 -11 3 -14 6 -6 3 7 2 16 -1 19 -3 4 -6 -2 -5 -13z"/>
<path d="M1536 62 c-3 -6 -1 -14 5 -17 14 -9 20 -2 10 14 -6 8 -11 9 -15 3z"/>
</g>
</svg>
