<?xml version="1.0" standalone="no"?>
<!DOCTYPE svg PUBLIC "-//W3C//DTD SVG 20010904//EN"
 "http://www.w3.org/TR/2001/REC-SVG-20010904/DTD/svg10.dtd">
<svg version="1.0" xmlns="http://www.w3.org/2000/svg"
 width="219.000000pt" height="92.000000pt" viewBox="0 0 219.000000 92.000000"
 preserveAspectRatio="xMidYMid meet">
<metadata>
Created by potrace 1.10, written by Peter Selinger 2001-2011
</metadata>
<g transform="translate(0.000000,92.000000) scale(0.100000,-0.100000)"
fill="#000000" stroke="none">
<path d="M268 914 c-5 -4 -8 -28 -8 -53 0 -32 3 -42 11 -34 5 5 9 29 7 53 -2
23 -6 38 -10 34z"/>
<path d="M367 883 c-6 -31 1 -55 14 -47 12 7 12 74 0 74 -5 0 -11 -12 -14 -27z"/>
<path d="M130 892 c0 -4 12 -25 26 -46 18 -26 29 -35 36 -28 7 7 2 19 -16 39
-14 15 -26 31 -26 35 0 5 -4 8 -10 8 -5 0 -10 -3 -10 -8z"/>
<path d="M322 801 c-8 -4 -24 -30 -37 -57 l-22 -49 -8 30 c-19 76 -56 95 -99
48 -18 -20 -24 -34 -20 -57 9 -67 24 -107 37 -99 6 3 7 1 3 -5 -6 -10 71 -91
94 -100 12 -5 50 30 50 45 0 7 4 13 8 13 5 0 17 18 27 39 10 22 23 42 30 45
17 6 29 110 15 135 -11 22 -53 28 -78 12z m66 -39 c7 -49 -73 -210 -112 -225
-18 -7 -67 46 -98 108 -21 43 -23 56 -16 93 6 26 15 42 24 42 20 0 75 -90 68
-112 -10 -33 5 -19 21 19 25 60 64 105 88 101 14 -2 23 -11 25 -26z"/>
<path d="M40 770 c-11 -7 -2 -10 33 -10 26 0 47 5 47 10 0 13 -60 13 -80 0z"/>
<path d="M463 753 c-23 -4 -50 -30 -41 -39 7 -7 78 28 78 38 0 4 -3 7 -7 7 -5
-1 -18 -4 -30 -6z"/>
<path d="M1006 647 c-47 -47 -46 -200 1 -237 33 -26 39 -25 69 5 25 25 26 30
22 121 -3 86 -5 98 -27 115 -30 24 -37 24 -65 -4z m58 -40 c12 -44 6 -153 -8
-173 -14 -18 -16 -18 -33 -1 -14 13 -17 33 -17 90 1 77 15 120 38 111 8 -3 17
-15 20 -27z"/>
<path d="M1234 660 c-29 -11 -44 -59 -44 -136 0 -76 12 -112 42 -123 55 -20
88 27 87 121 -1 97 -37 156 -85 138z m51 -129 c0 -62 -4 -84 -17 -97 -15 -15
-17 -14 -33 10 -13 20 -16 42 -13 95 4 79 22 112 47 87 11 -12 15 -38 16 -95z"/>
<path d="M545 530 l0 -130 33 0 c42 0 91 46 94 87 2 52 -4 88 -18 104 -8 9
-12 24 -8 34 9 23 -11 35 -61 35 l-40 0 0 -130z m68 93 c-7 -2 -19 -2 -25 0
-7 3 -2 5 12 5 14 0 19 -2 13 -5z m15 -45 c20 -20 15 -105 -8 -128 -34 -34
-40 -24 -40 60 0 70 2 80 18 80 10 0 23 -5 30 -12z"/>
<path d="M765 530 l0 -130 28 0 c15 0 27 5 27 10 0 6 -4 10 -10 10 -6 0 -10
35 -10 85 0 62 3 85 13 85 8 0 13 -20 15 -57 5 -88 19 -133 42 -133 21 0 28
26 9 32 -15 5 -30 149 -17 165 5 7 8 22 6 35 -3 20 -9 23 -53 26 l-50 3 0
-131z m68 93 c-7 -2 -19 -2 -25 0 -7 3 -2 5 12 5 14 0 19 -2 13 -5z"/>
<path d="M1405 530 l0 -130 28 0 c27 0 36 13 17 25 -12 8 -13 152 -1 159 4 3
11 -23 14 -57 8 -84 24 -127 48 -127 10 0 19 7 19 15 0 8 -4 15 -9 15 -13 0
-18 20 -31 105 -9 64 -8 71 10 87 27 22 25 38 -5 38 -15 0 -25 -6 -25 -14 0
-7 -7 -19 -15 -26 -9 -8 -15 -9 -15 -2 0 6 5 14 10 17 19 12 10 25 -17 25
l-28 0 0 -130z"/>
<path d="M1610 651 c0 -6 5 -13 10 -16 6 -3 10 -50 10 -105 0 -55 -4 -102 -10
-105 -24 -15 -6 -25 44 -25 41 0 55 4 60 16 9 24 1 28 -35 15 l-31 -11 3 120
4 120 -27 0 c-16 0 -28 -4 -28 -9z"/>
<path d="M1800 652 c0 -5 11 -19 25 -32 23 -21 25 -31 25 -106 0 -46 -4 -86
-10 -89 -19 -12 -10 -25 18 -25 l27 0 -3 104 c-4 97 -2 106 17 118 29 18 26
38 -4 38 -16 0 -25 -6 -25 -15 0 -8 -4 -15 -10 -15 -5 0 -7 7 -4 15 5 11 -1
15 -25 15 -17 0 -31 -4 -31 -8z"/>
<path d="M2000 651 c0 -6 5 -13 10 -16 6 -3 10 -50 10 -105 0 -55 -4 -102 -10
-105 -20 -12 -9 -25 20 -25 28 0 38 9 24 22 -3 3 -6 49 -7 101 l-2 95 28 -16
c26 -16 27 -20 27 -94 0 -42 -4 -80 -10 -83 -19 -12 -10 -25 18 -25 l27 0 0
130 0 130 -27 0 c-30 0 -35 -9 -16 -28 24 -24 1 -21 -25 3 -26 25 -67 34 -67
16z"/>
<path d="M90 638 c-21 -9 -22 -12 -7 -15 23 -6 47 3 47 17 0 12 -8 12 -40 -2z"/>
<path d="M390 611 c0 -7 51 -31 66 -31 14 0 -1 19 -21 28 -31 14 -45 15 -45 3z"/>
<path d="M330 532 c0 -20 59 -94 60 -74 0 12 -49 92 -56 92 -2 0 -4 -8 -4 -18z"/>
<path d="M173 528 c-13 -17 -24 -48 -17 -48 9 0 54 44 54 53 0 12 -27 8 -37
-5z"/>
<path d="M267 464 c-6 -35 -2 -103 7 -125 4 -9 5 -35 2 -58 -3 -26 1 -52 10
-69 27 -52 26 -52 -138 -52 -122 0 -149 -2 -139 -12 15 -16 1358 -21 1379 -5
8 6 12 6 12 -1 0 -6 28 -9 73 -7 39 2 215 3 390 4 204 1 317 5 317 11 0 7
-316 10 -928 10 l-927 0 -11 45 -10 45 33 0 c45 0 97 23 117 51 20 29 21 83 1
99 -23 19 -77 4 -118 -34 -48 -44 -48 -67 0 -27 57 47 68 37 15 -13 -56 -53
-60 -49 -61 64 -1 81 -15 124 -24 74z m183 -89 c0 -18 -27 -65 -48 -82 -9 -7
-27 -10 -41 -7 -18 4 -22 3 -13 -4 11 -7 10 -10 -3 -16 -36 -14 -48 -6 -22 14
14 11 33 20 41 20 9 0 26 9 38 20 12 11 17 20 11 20 -7 0 -19 -7 -28 -16 -9
-9 -18 -14 -21 -11 -3 2 6 14 20 25 15 11 26 27 26 36 0 9 8 16 20 16 11 0 20
-7 20 -15z"/>
<path d="M423 362 c1 -14 5 -18 11 -12 7 7 6 14 -1 21 -9 9 -12 7 -10 -9z"/>
<path d="M130 413 c-22 -8 -60 -45 -60 -58 0 -18 37 -48 49 -40 6 3 11 2 11
-3 0 -5 17 -9 38 -10 20 -1 49 -4 64 -7 28 -7 49 12 28 25 -6 4 -12 11 -11 16
0 12 -70 36 -86 30 -7 -3 -13 -11 -13 -17 0 -8 4 -8 15 1 12 10 15 9 16 -6 0
-11 3 -14 6 -6 2 6 9 12 14 12 6 0 8 -4 5 -9 -4 -5 4 -7 16 -5 l23 5 -23 -12
c-17 -10 -31 -9 -65 1 -59 19 -66 28 -38 51 28 23 59 24 107 4 24 -10 34 -11
32 -3 -8 23 -93 44 -128 31z"/>
<path d="M935 352 c-5 -4 -10 -38 -10 -75 l0 -68 35 3 c19 2 33 8 30 13 -3 6
-13 9 -22 8 -15 -2 -18 5 -18 37 0 33 3 40 20 40 21 0 24 8 14 34 -6 17 -32
21 -49 8z"/>
<path d="M1104 347 c-3 -9 7 -34 22 -57 20 -30 24 -44 16 -52 -8 -8 -15 -8
-26 1 -10 8 -16 9 -21 1 -16 -27 38 -43 63 -18 18 18 15 40 -13 80 -19 28 -21
36 -9 31 12 -4 15 -2 12 8 -7 20 -37 24 -44 6z"/>
<path d="M1303 352 c-33 -21 -37 -108 -7 -133 16 -13 64 -4 64 12 0 5 -12 8
-27 7 -24 -3 -28 1 -31 26 -6 49 6 78 28 71 14 -5 20 -2 20 9 0 17 -26 21 -47
8z"/>
<path d="M1676 345 c-18 -19 -22 -86 -6 -116 23 -42 80 -11 80 44 0 66 -40
105 -74 72z m45 -32 c14 -36 2 -85 -19 -81 -20 4 -26 29 -17 74 7 41 22 44 36
7z"/>
<path d="M1872 348 c-32 -39 -18 -129 21 -136 31 -6 47 17 47 69 0 64 -38 102
-68 67z m44 -32 c9 -38 1 -81 -16 -81 -16 0 -27 63 -16 91 8 22 25 17 32 -10z"/>
<path d="M536 283 c2 -59 5 -68 20 -68 16 0 18 7 15 47 -2 39 1 47 18 53 36
11 25 35 -16 35 l-38 0 1 -67z"/>
<path d="M725 280 c0 -57 3 -70 16 -70 13 0 15 11 13 58 -2 31 -1 48 2 37 3
-11 10 -37 15 -57 6 -22 16 -38 24 -38 17 0 19 11 6 26 -14 15 -23 82 -11 89
18 11 0 25 -33 25 l-32 0 0 -70z"/>
<path d="M1465 280 c0 -57 3 -70 16 -70 13 0 15 10 11 55 -4 47 -2 55 13 55
15 0 17 -8 13 -55 -4 -45 -2 -55 11 -55 13 0 16 13 16 70 0 61 -2 70 -18 70
-10 0 -15 -4 -12 -10 3 -5 -1 -10 -10 -10 -9 0 -13 5 -10 10 3 6 -2 10 -12 10
-16 0 -18 -9 -18 -70z"/>
<path d="M2055 280 l0 -71 34 3 c19 2 36 9 39 16 3 9 -3 11 -23 6 l-28 -7 5
62 c4 51 2 61 -11 61 -13 0 -16 -13 -16 -70z"/>
<path d="M1590 72 c0 -31 4 -38 20 -38 24 0 23 0 8 43 -16 44 -28 42 -28 -5z"/>
<path d="M1762 73 c2 -20 8 -38 13 -40 7 -2 9 12 7 37 -2 22 -8 40 -14 40 -5
0 -8 -17 -6 -37z"/>
<path d="M1047 68 c8 -43 13 -48 13 -15 0 15 0 30 1 34 0 4 -4 9 -10 11 -7 2
-9 -8 -4 -30z"/>
<path d="M727 82 c-7 -12 5 -82 13 -82 6 0 20 47 20 70 0 11 -28 21 -33 12z"/>
<path d="M850 65 c0 -33 13 -38 26 -10 10 20 8 24 -7 28 -15 4 -19 0 -19 -18z"/>
<path d="M980 80 c-10 -6 -11 -10 -2 -10 6 0 12 -7 12 -15 0 -8 6 -15 13 -15
15 0 16 42 1 47 -5 1 -16 -2 -24 -7z"/>
<path d="M1290 68 c0 -33 11 -68 21 -68 5 0 6 6 3 14 -3 8 -1 17 5 21 17 10
13 33 -9 45 -17 9 -20 8 -20 -12z"/>
<path d="M1350 65 c0 -33 13 -38 26 -10 10 20 8 24 -7 28 -15 4 -19 0 -19 -18z"/>
<path d="M417 67 c-7 -19 8 -43 17 -28 4 6 12 8 18 5 8 -5 9 -1 5 10 -4 10 -7
20 -7 22 0 10 -28 2 -33 -9z"/>
<path d="M560 60 c0 -13 6 -20 18 -19 11 0 12 2 4 6 -10 4 -10 8 -1 19 9 11 8
14 -5 14 -9 0 -16 -8 -16 -20z"/>
<path d="M613 64 c-8 -21 13 -42 28 -27 13 13 5 43 -11 43 -6 0 -13 -7 -17
-16z"/>
<path d="M672 58 c2 -13 8 -23 13 -23 6 0 11 10 13 23 2 15 -2 22 -13 22 -11
0 -15 -7 -13 -22z"/>
<path d="M787 74 c-11 -11 5 -34 23 -34 13 0 17 5 13 20 -5 19 -23 26 -36 14z"/>
<path d="M910 55 c0 -22 3 -25 13 -16 8 6 17 7 22 3 4 -4 6 2 3 13 -2 11 -11
21 -21 23 -13 3 -17 -3 -17 -23z"/>
<path d="M1090 73 c0 -5 5 -15 10 -23 9 -13 11 -13 20 0 15 22 12 30 -10 30
-11 0 -20 -3 -20 -7z"/>
<path d="M1155 70 c-8 -14 3 -30 21 -30 8 0 14 9 14 20 0 21 -24 28 -35 10z"/>
<path d="M1415 71 c-8 -14 3 -31 20 -31 15 0 14 32 -2 37 -6 2 -14 -1 -18 -6z"/>
<path d="M1474 58 c3 -23 5 -24 29 -15 9 4 9 8 -2 15 -11 8 -11 10 0 15 8 3 5
6 -8 6 -18 1 -22 -4 -19 -21z"/>
<path d="M1537 73 c-15 -14 -6 -33 16 -32 12 0 17 3 10 5 -7 3 -9 12 -6 20 5
14 -8 19 -20 7z"/>
<path d="M1653 64 c-8 -21 13 -42 28 -27 13 13 5 43 -11 43 -6 0 -13 -7 -17
-16z"/>
<path d="M1710 54 c0 -31 23 -28 28 4 2 15 -2 22 -12 22 -11 0 -16 -9 -16 -26z"/>
</g>
</svg>
