<?xml version="1.0" encoding="UTF-8" standalone="no"?>
<svg
   version="1.0"
   width="219.000000pt"
   height="92.000000pt"
   viewBox="0 0 219.000000 92.000000"
   preserveAspectRatio="xMidYMid meet"
   id="svg3056"
   sodipodi:docname="logo__md.svg"
   inkscape:version="1.2 (1:1.2+202206011327+fc4e4096c5)"
   xmlns:inkscape="http://www.inkscape.org/namespaces/inkscape"
   xmlns:sodipodi="http://sodipodi.sourceforge.net/DTD/sodipodi-0.dtd"
   xmlns="http://www.w3.org/2000/svg"
   xmlns:svg="http://www.w3.org/2000/svg">
  <defs
     id="defs3060">
    <inkscape:path-effect
       effect="powerstroke"
       id="path-effect8260"
       is_visible="true"
       lpeversion="1"
       offset_points="1.2793305,2.5076336"
       not_jump="true"
       sort_points="true"
       interpolator_type="CentripetalCatmullRom"
       interpolator_beta="0.75"
       start_linecap_type="round"
       linejoin_type="spiro"
       miter_limit="4"
       scale_width="1"
       end_linecap_type="round" />
    <inkscape:path-effect
       effect="simplify"
       id="path-effect8258"
       is_visible="true"
       lpeversion="1"
       steps="1"
       threshold="0.0047745358"
       smooth_angles="0"
       helper_size="0"
       simplify_individual_paths="false"
       simplify_just_coalesce="false"
       step="1" />
    <inkscape:path-effect
       effect="powerstroke"
       id="path-effect8241"
       is_visible="true"
       lpeversion="1"
       offset_points="0.45427747,2.5076336"
       not_jump="true"
       sort_points="true"
       interpolator_type="CentripetalCatmullRom"
       interpolator_beta="0.75"
       start_linecap_type="round"
       linejoin_type="spiro"
       miter_limit="4"
       scale_width="1"
       end_linecap_type="round" />
    <inkscape:path-effect
       effect="simplify"
       id="path-effect8239"
       is_visible="true"
       lpeversion="1"
       steps="1"
       threshold="0.0047745358"
       smooth_angles="0"
       helper_size="0"
       simplify_individual_paths="false"
       simplify_just_coalesce="false"
       step="1" />
  </defs>
  <sodipodi:namedview
     id="namedview3058"
     pagecolor="#ffffff"
     bordercolor="#000000"
     borderopacity="0.25"
     inkscape:showpageshadow="2"
     inkscape:pageopacity="0.0"
     inkscape:pagecheckerboard="0"
     inkscape:deskcolor="#d1d1d1"
     inkscape:document-units="pt"
     showgrid="true"
     inkscape:zoom="2"
     inkscape:cx="-73.250001"
     inkscape:cy="85.250001"
     inkscape:window-width="1920"
     inkscape:window-height="952"
     inkscape:window-x="0"
     inkscape:window-y="27"
     inkscape:window-maximized="1"
     inkscape:current-layer="g3054">
    <inkscape:grid
       type="xygrid"
       id="grid9535" />
  </sodipodi:namedview>
  <metadata
     id="metadata2950">
Created by potrace 1.10, written by Peter Selinger 2001-2011
</metadata>
  <g
     transform="translate(0.000000,92.000000) scale(0.100000,-0.100000)"
     fill="#000000"
     stroke="none"
     id="g3054">
    <path
       d="m 322,801 c -8,-4 -24,-30 -37,-57 l -22,-49 -8,30 c -19,76 -56,95 -99,48 C 138,753 133.91442,738.36714 137.91442,715.36714 146.91442,648.36714 160,609 173,617 c 18.31462,-3.67697 6.47335,8.99608 3,-5 -6,-10 71,-91 94,-100 12,-5 49.34861,30.01415 50,45 0.45639,10.49972 4,13 8,13 5,0 17,18 27,39 10,22 23,42 30,45 17,6 29,110 15,135 -11,22 -53,28 -78,12 z m 66,-39 c 7,-49 -73,-210 -112,-225 -18,-7 -67,46 -98,108 -21,43 -23,56 -16,93 6,26 15,42 24,42 20,0 77.82211,-89.36002 70.82211,-111.36002 C 246.82211,635.63998 259,649 275,687 c 25,60 64,105 88,101 14,-2 23,-11 25,-26 z"
       id="path2958"
       style="fill:#000000;fill-opacity:1"
       sodipodi:nodetypes="cccccccccssccccccccscccc" />
    <path
       d="M1006 647 c-47 -47 -46 -200 1 -237 33 -26 39 -25 69 5 25 25 26 30 22 121 -3 86 -5 98 -27 115 -30 24 -37 24 -65 -4z m58 -40 c12 -44 6 -153 -8 -173 -14 -18 -16 -18 -33 -1 -14 13 -17 33 -17 90 1 77 15 120 38 111 8 -3 17 -15 20 -27z"
       id="path2964" />
    <path
       d="M1234 660 c-29 -11 -44 -59 -44 -136 0 -76 12 -112 42 -123 55 -20 88 27 87 121 -1 97 -37 156 -85 138z m51 -129 c0 -62 -4 -84 -17 -97 -15 -15 -17 -14 -33 10 -13 20 -16 42 -13 95 4 79 22 112 47 87 11 -12 15 -38 16 -95z"
       id="path2966" />
    <path
       d="M545 530 l0 -130 33 0 c42 0 91 46 94 87 2 52 -4 88 -18 104 -8 9 -12 24 -8 34 9 23 -11 35 -61 35 l-40 0 0 -130z m68 93 c-7 -2 -19 -2 -25 0 -7 3 -2 5 12 5 14 0 19 -2 13 -5z m15 -45 c20 -20 15 -105 -8 -128 -34 -34 -40 -24 -40 60 0 70 2 80 18 80 10 0 23 -5 30 -12z"
       id="path2968" />
    <path
       d="M765 530 l0 -130 28 0 c15 0 27 5 27 10 0 6 -4 10 -10 10 -6 0 -10 35 -10 85 0 62 3 85 13 85 8 0 13 -20 15 -57 5 -88 19 -133 42 -133 21 0 28 26 9 32 -15 5 -30 149 -17 165 5 7 8 22 6 35 -3 20 -9 23 -53 26 l-50 3 0 -131z m68 93 c-7 -2 -19 -2 -25 0 -7 3 -2 5 12 5 14 0 19 -2 13 -5z"
       id="path2970" />
    <path
       d="m 734.07142,278.67473 v -69.87081 h 15.0491 c 8.06201,0 14.51163,2.68734 14.51163,5.37468 0,3.2248 -2.14987,5.37468 -5.37468,5.37468 -3.22481,0 -5.37468,18.81137 -5.37468,45.68476 0,33.323 1.61241,45.68476 6.98708,45.68476 4.29975,0 6.98708,-10.74936 8.06202,-30.63567 2.68734,-47.29716 10.21189,-71.48321 22.57365,-71.48321 11.28682,0 15.04909,13.97416 4.83721,17.19897 -8.06202,2.68734 -16.12404,80.0827 -9.13696,88.68218 2.68734,3.76228 4.29975,11.82429 3.22481,18.81137 -1.6124,10.74936 -4.83721,12.36176 -28.48579,13.97417 l -26.87339,1.6124 z m 36.54781,49.9845 c -3.76228,-1.07493 -10.21189,-1.07493 -13.4367,0 -3.76227,1.61241 -1.07493,2.68734 6.44962,2.68734 7.52455,0 10.21189,-1.07493 6.98708,-2.68734 z"
       id="path2970-3"
       style="stroke-width:0.537468" />
    <path
       d="M1405 530 l0 -130 28 0 c27 0 36 13 17 25 -12 8 -13 152 -1 159 4 3 11 -23 14 -57 8 -84 24 -127 48 -127 10 0 19 7 19 15 0 8 -4 15 -9 15 -13 0 -18 20 -31 105 -9 64 -8 71 10 87 27 22 25 38 -5 38 -15 0 -25 -6 -25 -14 0 -7 -7 -19 -15 -26 -9 -8 -15 -9 -15 -2 0 6 5 14 10 17 19 12 10 25 -17 25 l-28 0 0 -130z"
       id="path2972" />
    <path
       d="M1610 651 c0 -6 5 -13 10 -16 6 -3 10 -50 10 -105 0 -55 -4 -102 -10 -105 -24 -15 -6 -25 44 -25 41 0 55 4 60 16 9 24 1 28 -35 15 l-31 -11 3 120 4 120 -27 0 c-16 0 -28 -4 -28 -9z"
       id="path2974" />
    <path
       d="M1800 652 c0 -5 11 -19 25 -32 23 -21 25 -31 25 -106 0 -46 -4 -86 -10 -89 -19 -12 -10 -25 18 -25 l27 0 -3 104 c-4 97 -2 106 17 118 29 18 26 38 -4 38 -16 0 -25 -6 -25 -15 0 -8 -4 -15 -10 -15 -5 0 -7 7 -4 15 5 11 -1 15 -25 15 -17 0 -31 -4 -31 -8z"
       id="path2976" />
    <path
       d="M2000 651 c0 -6 5 -13 10 -16 6 -3 10 -50 10 -105 0 -55 -4 -102 -10 -105 -20 -12 -9 -25 20 -25 28 0 38 9 24 22 -3 3 -6 49 -7 101 l-2 95 28 -16 c26 -16 27 -20 27 -94 0 -42 -4 -80 -10 -83 -19 -12 -10 -25 18 -25 l27 0 0 130 0 130 -27 0 c-30 0 -35 -9 -16 -28 24 -24 1 -21 -25 3 -26 25 -67 34 -67 16z"
       id="path2978" />
    <g
       id="g3587"
       style="mix-blend-mode:normal;fill:#000000;fill-opacity:1;stroke:#ffffff;stroke-width:2.00000003;stroke-linecap:butt;stroke-linejoin:miter;stroke-miterlimit:2;stroke-dasharray:none;stroke-opacity:1;paint-order:markers fill stroke;stroke-dashoffset:0">
      <path
         d="m 268,914 c -5,-4 -8,-28 -8,-53 0,-32 3,-42 11,-34 5,5 9,29 7,53 -2,23 -6,38 -10,34 z"
         id="path2952"
         style="fill:#000000;fill-opacity:1;stroke:#ffffff;stroke-width:2.00000003;stroke-linecap:butt;stroke-linejoin:miter;stroke-miterlimit:2;stroke-dasharray:none;stroke-opacity:1;paint-order:markers fill stroke;stroke-dashoffset:0" />
      <path
         d="m 367,883 c -6,-31 1,-55 14,-47 12,7 12,74 0,74 -5,0 -11,-12 -14,-27 z"
         id="path2954"
         style="fill:#000000;fill-opacity:1;stroke:#ffffff;stroke-width:2.00000003;stroke-linecap:butt;stroke-linejoin:miter;stroke-miterlimit:2;stroke-dasharray:none;stroke-opacity:1;paint-order:markers fill stroke;stroke-dashoffset:0" />
      <path
         d="m 130,892 c 0,-4 12,-25 26,-46 18,-26 29,-35 36,-28 7,7 2,19 -16,39 -14,15 -26,31 -26,35 0,5 -4,8 -10,8 -5,0 -10,-3 -10,-8 z"
         id="path2956"
         style="fill:#000000;fill-opacity:1;stroke:#ffffff;stroke-width:2.00000003;stroke-linecap:butt;stroke-linejoin:miter;stroke-miterlimit:2;stroke-dasharray:none;stroke-opacity:1;paint-order:markers fill stroke;stroke-dashoffset:0" />
      <path
         d="m 40,770 c -11,-7 -2,-10 33,-10 26,0 47,5 47,10 0,13 -60,13 -80,0 z"
         id="path2960"
         style="fill:#000000;fill-opacity:1;stroke:#ffffff;stroke-width:2.00000003;stroke-linecap:butt;stroke-linejoin:miter;stroke-miterlimit:2;stroke-dasharray:none;stroke-opacity:1;paint-order:markers fill stroke;stroke-dashoffset:0" />
      <path
         d="m 463,753 c -23,-4 -50,-30 -41,-39 7,-7 78,28 78,38 0,4 -3,7 -7,7 -5,-1 -18,-4 -30,-6 z"
         id="path2962"
         style="fill:#000000;fill-opacity:1;stroke:#ffffff;stroke-width:2.00000003;stroke-linecap:butt;stroke-linejoin:miter;stroke-miterlimit:2;stroke-dasharray:none;stroke-opacity:1;paint-order:markers fill stroke;stroke-dashoffset:0" />
      <path
         d="m 90,638 c -21,-9 -22,-12 -7,-15 23,-6 47,3 47,17 0,12 -8,12 -40,-2 z"
         id="path2980"
         style="fill:#000000;fill-opacity:1;stroke:#ffffff;stroke-width:2.00000003;stroke-linecap:butt;stroke-linejoin:miter;stroke-miterlimit:2;stroke-dasharray:none;stroke-opacity:1;paint-order:markers fill stroke;stroke-dashoffset:0" />
      <path
         d="m 390,611 c 0,-7 51,-31 66,-31 14,0 -1,19 -21,28 -31,14 -45,15 -45,3 z"
         id="path2982"
         style="fill:#000000;fill-opacity:1;stroke:#ffffff;stroke-width:2.00000003;stroke-linecap:butt;stroke-linejoin:miter;stroke-miterlimit:2;stroke-dasharray:none;stroke-opacity:1;paint-order:markers fill stroke;stroke-dashoffset:0" />
      <path
         d="m 330,532 c 0,-20 59,-94 60,-74 0,12 -49,92 -56,92 -2,0 -4,-8 -4,-18 z"
         id="path2984"
         style="fill:#000000;fill-opacity:1;stroke:#ffffff;stroke-width:2.00000003;stroke-linecap:butt;stroke-linejoin:miter;stroke-miterlimit:2;stroke-dasharray:none;stroke-opacity:1;paint-order:markers fill stroke;stroke-dashoffset:0" />
      <path
         d="m 173,528 c -13,-17 -24,-48 -17,-48 9,0 54,44 54,53 0,12 -27,8 -37,-5 z"
         id="path2986"
         style="fill:#000000;fill-opacity:1;stroke:#ffffff;stroke-width:2.00000003;stroke-linecap:butt;stroke-linejoin:miter;stroke-miterlimit:2;stroke-dasharray:none;stroke-opacity:1;paint-order:markers fill stroke;stroke-dashoffset:0" />
    </g>
    <path
       d="m 267,464 c -6,-35 -2,-103 7,-125 4,-9 5,-35 2,-58 -3,-26 1,-52 10,-69 27,-52 26,-52 -138,-52 -122,0 -149,-2 -139,-12 15,-16 1153.73,-2.76972 1271.5639,-2.52714 67.8271,-2.15707 194.9736,-1.15659 218.3503,-0.29789 39,2 189.0858,-3.83957 364.0858,-2.83957 204,1 317,1.6646 317,7.6646 0,7 -316,10 -928,10 H 325 l -11,45 -10,45 h 33 c 45,0 97,23 117,51 20,29 21,83 1,99 -23,19 -77,4 -118,-34 -48,-44 -48,-67 0,-27 57,47 68,37 15,-13 -56,-53 -60,-49 -61,64 -1,81 -15,124 -24,74 z m 183,-89 c 0,-18 -27,-65 -48,-82 -9,-7 -27,-10 -41,-7 -18,4 -22,3 -13,-4 11,-7 10,-10 -3,-16 -36,-14 -48,-6 -22,14 14,11 33,20 41,20 9,0 26,9 38,20 12,11 17,20 11,20 -7,0 -19,-7 -28,-16 -9,-9 -18,-14 -21,-11 -3,2 6,14 20,25 15,11 26,27 26,36 0,9 8,16 20,16 11,0 20,-7 20,-15 z"
       id="path2988"
       style="fill:#008000"
       sodipodi:nodetypes="ccccsccccsscccscccccccscccccssssccsss" />
    <path
       d="M 130,413 C 108,405 70,368 70,355 70,337 77.71826,326.42573 112.65381,312.06908 136.1391,305.04149 149.35536,302.99526 168,302 c 20,-1 49,-4 64,-7 28,-7 49,12 28,25 -6,4 -12,11 -11,16 0,7.40459 -28.09673,27.38199 -58.16259,36.40827 -18.65937,5.60187 -39.8745,2.06402 -50.15577,3.60022 -49.887789,1.31876 31.69622,-13.14628 12.35518,-16.05659 -38.1822,-5.74542 -8.52325,-14.49976 7.86434,-8.29106 17.70846,3.96555 32.06683,1.88702 16.99783,-0.737 -14.70451,-6.24996 -14.18222,-13.44955 -3.70798,-10.24508 20.37914,9.30179 46.99262,2.73305 23.97971,-2.47492 C 185.95395,327.71264 210,334 222,336 l 23,5 -23,-12 c -17,-10 -31,-9 -65,1 -59,19 -66,28 -38,51 28,23 59,24 107,4 24,-10 34,-11 32,-3 -8,23 -93,44 -128,31 z"
       id="path2992"
       style="fill:#008000"
       sodipodi:nodetypes="cscccccscsccccccccsscc" />
    <path
       d="m 935,352 c -5,-4 -10,-38 -10,-75 L 927.26418,211.26418 960,212 c 19,2 33,8 30,13 -3,6 -13,9 -22,8 -15,-2 -18,5 -18,37 0,33 3,40 20,40 21,0 24,8 14,34 -6,17 -32,21 -49,8 z"
       id="path2994"
       sodipodi:nodetypes="csccccsscc" />
    <path
       d="M1104 347 c-3 -9 7 -34 22 -57 20 -30 24 -44 16 -52 -8 -8 -15 -8 -26 1 -10 8 -16 9 -21 1 -16 -27 38 -43 63 -18 18 18 15 40 -13 80 -19 28 -21 36 -9 31 12 -4 15 -2 12 8 -7 20 -37 24 -44 6z"
       id="path2996" />
    <path
       d="M1303 352 c-33 -21 -37 -108 -7 -133 16 -13 64 -4 64 12 0 5 -12 8 -27 7 -24 -3 -28 1 -31 26 -6 49 6 78 28 71 14 -5 20 -2 20 9 0 17 -26 21 -47 8z"
       id="path2998" />
    <path
       d="M1676 345 c-18 -19 -22 -86 -6 -116 23 -42 80 -11 80 44 0 66 -40 105 -74 72z m45 -32 c14 -36 2 -85 -19 -81 -20 4 -26 29 -17 74 7 41 22 44 36 7z"
       id="path3000" />
    <path
       d="M1872 348 c-32 -39 -18 -129 21 -136 31 -6 47 17 47 69 0 64 -38 102 -68 67z m44 -32 c9 -38 1 -81 -16 -81 -16 0 -27 63 -16 91 8 22 25 17 32 -10z"
       id="path3002" />
    <path
       d="M536 283 c2 -59 5 -68 20 -68 16 0 18 7 15 47 -2 39 1 47 18 53 36 11 25 35 -16 35 l-38 0 1 -67z"
       id="path3004" />
    <path
       d="M1465 280 c0 -57 3 -70 16 -70 13 0 15 10 11 55 -4 47 -2 55 13 55 15 0 17 -8 13 -55 -4 -45 -2 -55 11 -55 13 0 16 13 16 70 0 61 -2 70 -18 70 -10 0 -15 -4 -12 -10 3 -5 -1 -10 -10 -10 -9 0 -13 5 -10 10 3 6 -2 10 -12 10 -16 0 -18 -9 -18 -70z"
       id="path3008" />
    <path
       d="M2055 280 l0 -71 34 3 c19 2 36 9 39 16 3 9 -3 11 -23 6 l-28 -7 5 62 c4 51 2 61 -11 61 -13 0 -16 -13 -16 -70z"
       id="path3010" />
    <path
       d="m 1602.6581,117.45392 c -10.9473,0.64449 -15.5776,-83.966925 -8.0612,-69.842302 6.1974,11.646262 3.2004,20.726022 12.0402,20.068188 9.3677,-0.697112 8.2296,-11.840761 15.2113,-20.663362 5.157,-6.516892 5.6466,17.225166 -0.1556,28.066317 -6.3695,11.901298 -22.0105,-2.281027 -16.7928,16.930584 0.6331,15.578275 7.4419,24.870465 -2.2419,25.440575 z"
       id="path3012"
       style="stroke-width:0.994602"
       sodipodi:nodetypes="ssssscs" />
    <path
       d="m 1751.7036,85.069019 c 2,-18.16925 8,-34.521575 13,-36.3385 7,-1.816925 1.2709,12.421808 -0.7291,35.133371 -2,19.98618 -0.2709,34.81824 -6.2709,34.81824 -5,0 -8,-15.44386 -6,-33.613111 z"
       id="path3014"
       sodipodi:nodetypes="sccss"
       style="stroke-width:0.953133" />
    <path
       d="m 1035.7292,88.799661 c -0.01,-2.920336 -2.0786,-1.952394 -2.7229,-4.932908 -8.659,-40.056581 10.7239,-49.098318 10.7239,-16.953195 0,15 -8.9009,17.836123 -7.9009,21.836123 2.3135,0.542264 11.3314,-0.484128 -0.026,9.523195 -7.0565,1.916284 -15.0248,-2.226807 -0.074,-9.473215 z"
       id="path3016"
       sodipodi:nodetypes="csscccc" />
    <path
       d="m 843.92365,76.53154 c 1.37737,-32.971243 9.81517,-42.803164 10.16279,-12.714918 -0.0341,2.13113 -2.42798,15.970834 1.37795,20.043614 6.99016,7.48026 14.33174,-8.581112 18.26497,1.473332 5.65562,14.457317 -30.73398,13.418789 -29.80571,-8.802028 z"
       id="path3020"
       sodipodi:nodetypes="scsss" />
    <path
       d="m 971.2872,109.30725 c -0.4294,-5.32681 -28.30447,-1.46439 -24.55805,-6.80569 1.82655,-2.604136 20.11752,-3.891538 20.55802,-10.209106 0.6182,-8.866373 -2.47361,-60.626755 12.26693,-45.619324 3.51,3.573624 3.6473,31.836661 1.7293,46.786457 -1.1805,9.201503 3.2315,2.993997 15.2412,8.225483 4.0081,4.93281 -14.0574,0.96462 -14.9439,6.53052 -3.4784,21.84082 -8.5108,12.29659 -10.2935,1.09166 z"
       id="path3022"
       sodipodi:nodetypes="csssscsc"
       style="stroke-width:1.05433" />
    <g
       id="g10472"
       transform="translate(40.735788,0.66793442)">
      <path
         d="m 1239.6582,75.414441 c 0,-33 8.7512,-65.4960469 18.7512,-65.4960469 5,0 6,5.9999999 3,13.9999999 -3,8 -6.2252,22.700011 -0.2252,26.700011 17,10 20.474,24.796036 -1.526,36.796036 -13.2917,6.304976 -20,8 -20,-12 z"
         id="path3024"
         sodipodi:nodetypes="sssccs" />
      <path
         d="m 1248.5308,69.357039 c 0,-14.339045 5.1978,-16.51163 10.3955,-4.345165 3.9983,8.690331 3.1986,10.428397 -2.7988,12.166463 -5.9974,1.738066 -7.5967,0 -7.5967,-7.821298 z"
         id="path3026"
         style="fill:#ffffff;fill-opacity:1;stroke-width:0.416811" />
    </g>
    <path
       d="m 565.08869,71.547087 c 0,-13.501504 6,-22.170367 18,-21.13179 11,0 13.3618,18.832071 6.28002,12.672339 -6.60822,-4.505378 -9.25548,-2.629645 -11.25339,-0.904425 -4.6772,4.038802 -5.165,10.330408 -2.07321,17.408269 3.85472,8.82438 11.47069,4.182966 14.29248,3.355722 3.80151,-1.114464 0.51235,11.907201 -9.53699,11.907201 -9,0 -15.70891,-10.84439 -15.70891,-23.307316 z"
       id="path3030"
       sodipodi:nodetypes="sccsssss"
       style="stroke-width:1.01911" />
    <g
       id="g9274"
       transform="translate(11.159363,14.42102)">
      <path
         d="m 718.22933,70.273512 c -4.92683,-10.522149 8.7165,-72.1714165 14.1385,-70.27950008 4.44531,1.55111468 -2.98257,18.99569908 -2.57368,29.73988408 0.21258,5.586027 -1.32747,8.772436 4.12834,12.117298 2.33891,1.433943 11.52387,0.813521 16.785,5.515715 7.11625,6.360226 4.87369,14.81946 2.62154,18.991259 -13.05913,24.190175 -31.58054,11.806956 -35.0997,3.915344 z"
         id="path3018"
         sodipodi:nodetypes="csssssc"
         style="stroke-width:0.785591" />
      <path
         d="m 727.33551,64.243355 c -1.93852,-7.77461 1.13507,-5.875645 8.47729,-6.352122 5.40272,-0.350613 8.88454,-1.859019 7.21867,5.48196 -4.78644,5.011468 -11.00474,8.906107 -15.69596,0.870162 z"
         id="path3036"
         style="fill:#ffffff;fill-opacity:1;stroke-width:0.451463"
         sodipodi:nodetypes="cscc" />
    </g>
    <path
       d="M 910.5978,92.222059 C 897.64723,83.738217 892.24282,64.222035 898.26637,54.59286 c 9.87885,-9.218075 20.4854,12.290225 35.57351,-4.201817 9.89752,-10.818467 -8.17492,43.145353 -23.24208,41.831016 z m 9.37014,-15.405551 c 1.60957,-4.819343 -4.80729,-14.144383 -9.31047,-13.790577 -7.78467,1.133471 -7.20556,3.50588 -6.02984,8.597769 2.72461,11.618081 9.89099,15.677433 15.34031,5.192808 z"
       id="path3000-6-3"
       style="fill:#000000;fill-opacity:1;stroke-width:0.33211"
       sodipodi:nodetypes="ccsccccc" />
    <path
       d="m 1081.7297,94.928083 c -4.3136,-5.161283 6.5202,-20.648594 13.0403,-31.661178 11.7363,-17.895448 14.3443,-17.895448 26.0806,0 8.4485,14.369127 11.4183,35.161559 7.5944,33.783529 -4.3323,-1.561238 -16.379,-26.386144 -20.642,-26.156528 -14.3257,0.771629 -18.2792,33.359884 -26.0733,24.034177 z"
       id="path3040"
       sodipodi:nodetypes="sccsss"
       style="stroke-width:1.33981" />
    <path
       d="m 1481.8292,61.225919 c -3.5932,-9.073407 -12.4912,6.648166 -15.9533,-3.779259 -1.9244,-5.796099 14.0475,-12.777378 23.7625,-9.047854 9,4.09486 8.0925,10.398002 -1.2742,22.225022 -6.1374,6.480892 -2.0199,12.493934 5.3172,12.054776 11.4827,-4.682297 3.9028,11.193651 -9.0972,11.193651 -7.9195,0.479609 -12.3858,-5.189361 -11.9963,-10.398981 0.4419,-5.910186 8.4788,-12.997563 9.2413,-22.247355 z"
       id="path3046"
       sodipodi:nodetypes="csccccsc"
       style="stroke-width:1.01179" />
    <path
       d="m 627.24712,90.878838 c -5.81447,-5.662769 -7.10657,-25.631476 -1.93816,-34.57269 7.4296,-12.517697 25.84209,-3.278446 25.84209,13.113777 0,19.670671 -12.92104,31.294245 -23.90393,21.458913 z m 12.49029,-11.71245 c 4.52236,-10.729456 -0.36571,-20.839502 -4.05646,-19.647341 -4.28912,0.665732 -7.01984,6.324395 -4.1126,19.736218 1.55462,7.398867 4.85058,6.999009 8.16906,-0.08888 z"
       id="path3000-6"
       style="stroke-width:0.310281"
       sodipodi:nodetypes="ccsccccc" />
    <path
       d="m 676.64166,90.584952 c -5.81447,-5.256842 -3.55209,-24.396143 1.61632,-32.696427 11.80915,-16.828166 20.34168,-2.623391 22.28761,12.775752 2.61622,20.703513 -12.2024,29.655553 -23.90393,19.920675 z m 13.62516,-9.740416 c 4.52236,-9.960348 3.84759,-16.337392 -2.40823,-20.352618 -6.46051,1.106703 -6.84362,8.570893 -5.64598,16.730078 1.9255,5.807915 4.51302,8.226632 8.05421,3.62254 z"
       id="path3000-6-6"
       style="fill:#000000;fill-opacity:1;stroke-width:0.298954"
       sodipodi:nodetypes="ccsccccc" />
    <path
       d="m 756.58215,330.37239 c -4.50748,-2.43239 2.85285,-4.57222 10.86227,-4.61425 6.32126,-0.0332 9.65614,1.91019 9.49153,3.57981 -0.24821,2.51757 -10.66293,2.94503 -20.3538,1.03444 z"
       id="path3042-6"
       style="fill:#ffffff;fill-opacity:1;stroke-width:0.563241"
       sodipodi:nodetypes="cssc" />
    <path
       d="m 559.30115,331.50459 c -4.86159,-2.98176 3.07696,-5.60487 11.71561,-5.6564 6.81786,-0.0407 10.41473,2.34162 10.23719,4.38833 -0.26771,3.08617 -11.50062,3.61017 -21.9528,1.26807 z"
       id="path3042-6-7"
       style="fill:#ffffff;fill-opacity:1;stroke-width:0.647642"
       sodipodi:nodetypes="cssc" />
    <path
       d="m 951.18932,334.24998 c -5.18744,-3.8953 3.28319,-7.3221 12.50086,-7.3894 7.27483,-0.0532 11.11277,3.05904 10.92334,5.73281 -0.28565,4.03173 -12.27145,4.71628 -23.4242,1.65659 z"
       id="path3042-6-0-0"
       style="fill:#ffffff;fill-opacity:1;stroke-width:0.76464"
       sodipodi:nodetypes="cssc" />
    <path
       d="m 794.14425,91.961908 c -6.887,-5.68654 -9.19365,-19.117641 2.94115,-36.388167 5.82232,-7.798255 30.08493,-5.831614 26.5295,5.640725 -2.84846,9.191142 -3.67867,-3.537921 -9.36823,-4.488643 -4.67366,-0.780966 -12.22543,4.676208 -11.32714,9.951067 0.63752,3.74353 13.29185,5.296898 14.18513,7.805323 5.75134,16.150381 -13.62321,25.078795 -22.96041,17.479695 z m 15.58173,-8.449942 c 3.72036,-4.828202 -0.26714,-6.803594 -4.7862,-7.578724 -4.969,0.183097 -9.33975,0.370542 -5.67483,6.412774 4.16588,4.551947 7.6361,4.870865 10.46103,1.16595 z"
       id="path3000-6-3-7"
       style="fill:#000000;fill-opacity:1;stroke-width:0.322169"
       sodipodi:nodetypes="ccssssccccc" />
    <path
       d="m 465.11819,94.490371 c -12.95057,-8.483842 -18.35498,-28.000024 -12.33143,-37.629199 9.87885,-9.218075 20.4854,12.290225 35.57351,-4.201817 9.89752,-10.818467 -8.17492,43.145353 -23.24208,41.831016 z m 9.37014,-15.405551 c 1.60957,-4.819343 -4.80729,-14.144383 -9.31047,-13.790577 -7.78467,1.133471 -7.20556,3.50588 -6.02984,8.597769 2.72461,11.618081 9.89099,15.677433 15.34031,5.192808 z"
       id="path3000-6-3-72"
       style="fill:#000000;fill-opacity:1;stroke-width:0.33211"
       sodipodi:nodetypes="ccsccccc" />
    <path
       d="m 1156.6948,92.999563 c -6.887,-5.68654 -8.0831,-32.980532 6.7303,-40.532929 9.8266,-4.433216 28.2162,-0.346076 24.6608,11.126263 -2.8485,9.191142 -7.5463,-5.673688 -13.2591,-4.87454 -5.3312,0.745748 -10.255,3.721329 -9.3567,8.996188 0.6375,3.74353 12.8946,5.936819 13.8286,11.143192 3.027,16.874545 -13.2667,21.740933 -22.6039,14.141826 z m 15.5817,-8.449942 c 3.7204,-4.828202 -0.2671,-6.803594 -4.7862,-7.578724 -4.969,0.183097 -9.3397,0.370542 -5.6748,6.412774 4.1659,4.551947 7.6361,4.870865 10.461,1.16595 z"
       id="path3000-6-3-7-6"
       style="fill:#000000;fill-opacity:1;stroke-width:0.322169"
       sodipodi:nodetypes="ccssssccccc" />
    <path
       d="m 1344.17,77.814623 c 1.3773,-32.971246 9.8151,-42.803167 10.1627,-12.714921 -0.034,2.13113 -2.4279,15.970831 1.378,20.043611 6.9902,7.48026 14.3317,-8.58111 18.265,1.47334 5.6556,14.457307 -30.734,13.418777 -29.8057,-8.80203 z"
       id="path3020-5"
       sodipodi:nodetypes="scsss" />
    <path
       d="m 1405.1573,90.865142 c -6.887,-5.68654 -8.0831,-32.980531 6.7303,-40.532928 9.8266,-4.433216 28.2162,-0.346076 24.6608,11.126263 -2.8485,9.191142 -7.5463,-5.673688 -13.2591,-4.87454 -5.3312,0.745748 -10.255,3.721329 -9.3567,8.996188 0.6375,3.74353 12.8946,5.936819 13.8286,11.143197 3.027,16.87454 -13.2667,21.74093 -22.6039,14.14182 z m 15.5817,-8.44994 c 3.7204,-4.8282 -0.2671,-6.8036 -4.7862,-7.57872 -4.969,0.18309 -9.3397,0.37054 -5.6748,6.41277 4.1659,4.55195 7.6361,4.87086 10.461,1.16595 z"
       id="path3000-6-3-7-6-9"
       style="fill:#000000;fill-opacity:1;stroke-width:0.322169"
       sodipodi:nodetypes="ccssssccccc" />
    <path
       d="m 1535.4344,68.956852 c 0,-13.501501 6,-22.170371 18,-21.131791 11,0 13.3618,18.832071 6.28,12.672341 -6.6082,-4.505381 -9.2555,-2.629651 -11.2534,-0.90443 -4.6772,4.03881 -5.165,10.33041 -2.0732,17.40827 3.8547,8.82438 11.4707,4.18297 14.2925,3.35573 3.8015,-1.11447 0.5123,11.9072 -9.537,11.9072 -9,0 -15.7089,-10.84439 -15.7089,-23.30732 z"
       id="path3030-0"
       sodipodi:nodetypes="sccsssss"
       style="stroke-width:1.01911" />
    <path
       d="m 1655.2116,91.75363 c -5.8144,-5.66277 -7.1065,-25.63147 -1.9381,-34.57269 7.4296,-12.517694 25.8421,-3.27844 25.8421,13.11378 0,19.67067 -12.9211,31.29425 -23.904,21.45891 z m 12.4903,-11.71245 c 4.5224,-10.72945 -0.3657,-20.8395 -4.0564,-19.64734 -4.2892,0.66573 -7.0199,6.3244 -4.1127,19.73622 1.5547,7.39887 4.8506,6.99901 8.1691,-0.0889 z"
       id="path3000-6-8"
       style="stroke-width:0.310281"
       sodipodi:nodetypes="ccsccccc" />
    <path
       d="m 1707.0279,90.078722 c -5.8145,-5.25684 -3.5521,-24.39614 1.6163,-32.696428 11.8091,-16.828166 20.3417,-2.623391 22.2876,12.775748 2.6162,20.70352 -12.2024,29.65556 -23.9039,19.92068 z m 13.6251,-9.74042 c 4.5224,-9.96034 3.8476,-16.33739 -2.4082,-20.35261 -6.4605,1.1067 -6.8436,8.57089 -5.646,16.73007 1.9255,5.80792 4.513,8.22664 8.0542,3.62254 z"
       id="path3000-6-6-5"
       style="fill:#000000;fill-opacity:1;stroke-width:0.298954"
       sodipodi:nodetypes="ccsccccc" />
    <g
       id="rect1173"
       transform="scale(1,-1)">
      <path
         style="color:#000000;fill:#ff2121;fill-opacity:0.983662;stroke-width:21.5;stroke-miterlimit:2;-inkscape-stroke:none;paint-order:markers fill stroke"
         d="m 166.9737,-755.60389 c 16.24826,-68.24467 69.05476,23.84233 83.55532,54.7336 13.67734,29.13754 2.32789,41.85604 3.77771,50.57869 13.98065,-10.14747 48.09497,-129.40162 101.40215,-137.65351 69.13118,-2.479 19.21532,102.62411 -3.21376,151.63132 -25.94096,56.68062 -61.22509,94.05194 -79.83269,101.86177 -46.45387,-21.8024 -54.62511,-44.91117 -85.76048,-92.0935 0,0 -26.71003,-37.95278 -29.5499,-79.65588 -1.014,-14.89042 9.62165,-49.40249 9.62165,-49.40249 z"
         id="path1906"
         sodipodi:nodetypes="csccsccsc" />
    </g>
  </g>
</svg>
